<svg xmlns="http://www.w3.org/2000/svg" viewBox="0 0 830 520" width="830" height="520" role="img" aria-label="Prénoms de France : 6 622 949 lignes INSEE, 39/39 tests. La part des naissances portée par les 10 prénoms les plus donnés passe de 45,3 % (filles, 1900) à 8,7 % (filles) et 10,7 % (garçons) en 2025." font-family="-apple-system, 'Segoe UI', Helvetica, Arial, sans-serif">
<title>Prénoms de France : 6 622 949 lignes INSEE, 39/39 tests. La part des naissances portée par les 10 prénoms les plus donnés passe de 45,3 % (filles, 1900) à 8,7 % (filles) et 10,7 % (garçons) en 2025.</title>
<rect x=".5" y=".5" width="829" height="519" rx="8" fill="#0d1117" stroke="#30363d"/>
<text x="40" y="48" font-size="22" font-weight="700" fill="#e6edf3">Prénoms de France, 1900-2025</text>
  <text x="40" y="74" font-size="14" fill="#9ba5b0">Pipeline batch sur le fichier des prénoms de l'INSEE · Python · DuckDB · dbt · GitHub Actions</text>
  <rect x="40" y="96" width="178.5" height="70" rx="6" fill="#161b22" stroke="#30363d"/>
    <text x="56" y="130" font-size="24" font-weight="700" fill="#e6edf3">6 622 949</text>
    <text x="56" y="152" font-size="13" fill="#9ba5b0">lignes source (INSEE)</text><rect x="230.5" y="96" width="178.5" height="70" rx="6" fill="#161b22" stroke="#30363d"/>
    <text x="246.5" y="130" font-size="24" font-weight="700" fill="#e6edf3">39/39</text>
    <text x="246.5" y="152" font-size="13" fill="#9ba5b0">tests de qualité dbt</text><rect x="421" y="96" width="178.5" height="70" rx="6" fill="#161b22" stroke="#30363d"/>
    <text x="437" y="130" font-size="24" font-weight="700" fill="#e6edf3">126 ans</text>
    <text x="437" y="152" font-size="13" fill="#9ba5b0">de naissances, 1900-2025</text><rect x="611.5" y="96" width="178.5" height="70" rx="6" fill="#161b22" stroke="#30363d"/>
    <text x="627.5" y="130" font-size="24" font-weight="700" fill="#e6edf3">29</text>
    <text x="627.5" y="152" font-size="13" fill="#9ba5b0">fichiers JSON exportés</text>
  <text x="40" y="222" font-size="15" font-weight="600" fill="#e6edf3">Part des naissances portée par les 10 prénoms les plus donnés</text>
  <g font-size="13"><line x1="500" y1="217" x2="520" y2="217" stroke="#58a6ff" stroke-width="3"/><text x="528" y="222" fill="#9ba5b0">Filles</text>
  <line x1="590" y1="217" x2="610" y2="217" stroke="#f0883e" stroke-width="3"/><text x="618" y="222" fill="#9ba5b0">Garçons</text></g>
  <line x1="80" y1="460" x2="680" y2="460" stroke="#30363d"/>
    <text x="70" y="464" text-anchor="end" font-size="12" fill="#9ba5b0">0 %</text><line x1="80" y1="390" x2="680" y2="390" stroke="#21262d"/>
    <text x="70" y="394" text-anchor="end" font-size="12" fill="#9ba5b0">20 %</text><line x1="80" y1="320" x2="680" y2="320" stroke="#21262d"/>
    <text x="70" y="324" text-anchor="end" font-size="12" fill="#9ba5b0">40 %</text><line x1="80" y1="250" x2="680" y2="250" stroke="#21262d"/>
    <text x="70" y="254" text-anchor="end" font-size="12" fill="#9ba5b0">60 %</text><text x="80" y="482" text-anchor="middle" font-size="12" fill="#9ba5b0">1900</text><text x="200" y="482" text-anchor="middle" font-size="12" fill="#9ba5b0">1925</text><text x="320" y="482" text-anchor="middle" font-size="12" fill="#9ba5b0">1950</text><text x="440" y="482" text-anchor="middle" font-size="12" fill="#9ba5b0">1975</text><text x="560" y="482" text-anchor="middle" font-size="12" fill="#9ba5b0">2000</text><text x="680" y="482" text-anchor="middle" font-size="12" fill="#9ba5b0">2025</text>
  <path d="M80.0,301.6L84.8,301.4L89.6,302.0L94.4,303.8L99.2,304.1L104.0,306.0L108.8,307.2L113.6,309.6L118.4,311.1L123.2,312.0L128.0,313.1L132.8,315.9L137.6,317.6L142.4,319.6L147.2,319.9L152.0,325.2L156.8,326.8L161.6,328.2L166.4,327.7L171.2,328.7L176.0,329.2L180.8,332.5L185.6,336.1L190.4,337.7L195.2,340.6L200.0,344.3L204.8,345.4L209.6,346.5L214.4,347.7L219.2,348.9L224.0,349.2L228.8,349.4L233.6,349.8L238.4,350.1L243.2,350.2L248.0,351.5L252.8,349.6L257.6,348.3L262.4,346.9L267.2,346.9L272.0,347.2L276.8,345.1L281.6,340.7L286.4,338.4L291.2,337.8L296.0,338.8L300.8,342.4L305.6,341.2L310.4,346.0L315.2,347.2L320.0,350.0L324.8,351.9L329.6,351.7L334.4,352.3L339.2,351.7L344.0,353.1L348.8,350.7L353.6,348.4L358.4,346.8L363.2,345.8L368.0,344.8L372.8,344.4L377.6,344.4L382.4,337.8L387.2,326.5L392.0,320.5L396.8,322.6L401.6,326.4L406.4,328.4L411.2,333.9L416.0,341.0L420.8,347.8L425.6,352.8L430.4,355.8L435.2,353.3L440.0,360.4L444.8,366.4L449.6,372.9L454.4,379.3L459.2,380.6L464.0,378.8L468.8,380.1L473.6,379.8L478.4,378.1L483.2,381.0L488.0,383.3L492.8,385.9L497.6,391.1L502.4,391.3L507.2,393.6L512.0,397.2L516.8,398.3L521.6,398.5L526.4,396.9L531.2,394.8L536.0,396.1L540.8,396.7L545.6,398.2L550.4,398.5L555.2,398.3L560.0,396.7L564.8,400.2L569.6,403.5L574.4,405.8L579.2,408.6L584.0,409.8L588.8,411.1L593.6,413.1L598.4,413.6L603.2,415.1L608.0,419.7L612.8,421.7L617.6,422.2L622.4,422.5L627.2,423.8L632.0,424.9L636.8,425.2L641.6,426.1L646.4,426.9L651.2,427.6L656.0,428.4L660.8,429.4L665.6,428.7L670.4,429.5L675.2,429.8L680.0,429.6" fill="none" stroke="#58a6ff" stroke-width="2.5" stroke-linejoin="round"/>
  <path d="M80.0,316.8L84.8,315.6L89.6,314.8L94.4,314.1L99.2,313.6L104.0,313.7L108.8,312.5L113.6,311.3L118.4,310.5L123.2,310.5L128.0,309.8L132.8,308.7L137.6,307.8L142.4,307.5L147.2,307.0L152.0,308.3L156.8,310.2L161.6,305.8L166.4,302.6L171.2,299.8L176.0,295.2L180.8,294.0L185.6,294.9L190.4,295.9L195.2,298.2L200.0,299.2L204.8,299.7L209.6,300.4L214.4,301.5L219.2,301.0L224.0,301.3L228.8,300.1L233.6,299.4L238.4,297.9L243.2,297.1L248.0,296.6L252.8,294.7L257.6,295.0L262.4,294.3L267.2,294.7L272.0,293.2L276.8,292.7L281.6,289.4L286.4,285.1L291.2,285.2L296.0,284.8L300.8,287.0L305.6,289.5L310.4,295.1L315.2,301.0L320.0,306.5L324.8,310.3L329.6,312.9L334.4,315.9L339.2,318.5L344.0,321.2L348.8,325.8L353.6,329.7L358.4,328.6L363.2,331.5L368.0,332.0L372.8,331.1L377.6,331.6L382.4,333.1L387.2,333.0L392.0,336.1L396.8,336.9L401.6,336.8L406.4,338.2L411.2,338.8L416.0,336.3L420.8,341.1L425.6,344.0L430.4,341.8L435.2,343.6L440.0,346.9L444.8,349.8L449.6,354.0L454.4,359.6L459.2,366.8L464.0,366.0L468.8,370.1L473.6,374.5L478.4,377.8L483.2,379.4L488.0,377.5L492.8,379.1L497.6,382.3L502.4,382.1L507.2,382.8L512.0,383.5L516.8,383.0L521.6,384.8L526.4,385.7L531.2,387.5L536.0,390.1L540.8,392.0L545.6,394.5L550.4,396.1L555.2,396.6L560.0,396.6L564.8,398.2L569.6,401.3L574.4,404.3L579.2,408.0L584.0,409.7L588.8,411.0L593.6,412.1L598.4,414.2L603.2,413.9L608.0,415.5L612.8,417.6L617.6,417.6L622.4,416.6L627.2,418.0L632.0,417.8L636.8,418.0L641.6,420.6L646.4,420.1L651.2,420.8L656.0,422.7L660.8,422.9L665.6,423.6L670.4,424.2L675.2,423.5L680.0,422.6" fill="none" stroke="#f0883e" stroke-width="2.5" stroke-linejoin="round"/>
  <circle cx="80" cy="301.60995" r="4" fill="#58a6ff"/>
  <text x="90" y="291.60995" font-size="13" fill="#e6edf3"><tspan font-weight="700">45,3 %</tspan> <tspan fill="#9ba5b0">filles en 1900</tspan></text>
  <circle cx="680" cy="422.63435" r="4" fill="#f0883e"/>
    <text x="690" y="416.63435" font-size="13" fill="#e6edf3"><tspan font-weight="700">10,7 %</tspan> <tspan fill="#9ba5b0">garçons</tspan></text>
  <circle cx="680" cy="429.62455" r="4" fill="#58a6ff"/>
    <text x="690" y="443.62455" font-size="13" fill="#e6edf3"><tspan font-weight="700">8,7 %</tspan> <tspan fill="#9ba5b0">filles</tspan></text>
</svg>