<svg xmlns="http://www.w3.org/2000/svg" viewBox="0 0 830 470" width="830" height="470" role="img" aria-label="Inclusion financière : 23 524 réponses aux enquêtes FinScope, 14,1 % des répondants ont un compte bancaire. Part des répondants ayant un compte par type d'emploi, de 77,5 % (salariés du public) à 2,1 % (sans revenu)." font-family="-apple-system, 'Segoe UI', Helvetica, Arial, sans-serif">
<title>Inclusion financière : 23 524 réponses aux enquêtes FinScope, 14,1 % des répondants ont un compte bancaire. Part des répondants ayant un compte par type d'emploi, de 77,5 % (salariés du public) à 2,1 % (sans revenu).</title>
<rect x=".5" y=".5" width="829" height="469" rx="8" fill="#0d1117" stroke="#30363d"/>
<text x="40" y="48" font-size="22" font-weight="700" fill="#e6edf3">Inclusion financière en Afrique de l'Est</text>
  <text x="40" y="74" font-size="14" fill="#9ba5b0">Analyse exploratoire, nettoyage et Random Forest · Python · Pandas · scikit-learn · Streamlit</text>
  <rect x="40" y="96" width="178.5" height="70" rx="6" fill="#161b22" stroke="#30363d"/>
    <text x="56" y="130" font-size="24" font-weight="700" fill="#e6edf3">23 524</text>
    <text x="56" y="152" font-size="13" fill="#9ba5b0">réponses FinScope, 4 pays</text><rect x="230.5" y="96" width="178.5" height="70" rx="6" fill="#161b22" stroke="#30363d"/>
    <text x="246.5" y="130" font-size="24" font-weight="700" fill="#e6edf3">14,1 %</text>
    <text x="246.5" y="152" font-size="13" fill="#9ba5b0">ont un compte bancaire</text><rect x="421" y="96" width="178.5" height="70" rx="6" fill="#161b22" stroke="#30363d"/>
    <text x="437" y="130" font-size="24" font-weight="700" fill="#e6edf3">0,853</text>
    <text x="437" y="152" font-size="13" fill="#9ba5b0">AUC sur un jeu de test</text><rect x="611.5" y="96" width="178.5" height="70" rx="6" fill="#161b22" stroke="#30363d"/>
    <text x="627.5" y="130" font-size="24" font-weight="700" fill="#e6edf3">32,5 %</text>
    <text x="627.5" y="152" font-size="13" fill="#9ba5b0">rappel sur « oui »</text>
  <text x="40" y="228" font-size="15" font-weight="600" fill="#e6edf3">Part des répondants qui ont un compte bancaire, par type d'emploi</text>
  <text x="236" y="275" text-anchor="end" font-size="13" fill="#9ba5b0">Salarié du public</text>
    <rect x="250" y="262" width="470" height="18" rx="3" fill="#161b22"/>
    <rect x="250" y="262" width="364.3" height="18" rx="3" fill="#58a6ff"/>
    <text x="622.25" y="276" font-size="13" font-weight="700" fill="#e6edf3">77,5 %</text><text x="236" y="305" text-anchor="end" font-size="13" fill="#9ba5b0">Salarié du privé</text>
    <rect x="250" y="292" width="470" height="18" rx="3" fill="#161b22"/>
    <rect x="250" y="292" width="254.7" height="18" rx="3" fill="#58a6ff"/>
    <text x="512.74" y="306" font-size="13" font-weight="700" fill="#e6edf3">54,2 %</text><text x="236" y="335" text-anchor="end" font-size="13" fill="#9ba5b0">Indépendant</text>
    <rect x="250" y="322" width="470" height="18" rx="3" fill="#161b22"/>
    <rect x="250" y="322" width="62.0" height="18" rx="3" fill="#58a6ff"/>
    <text x="320.04" y="336" font-size="13" font-weight="700" fill="#e6edf3">13,2 %</text><text x="236" y="365" text-anchor="end" font-size="13" fill="#9ba5b0">Agriculture et pêche</text>
    <rect x="250" y="352" width="470" height="18" rx="3" fill="#161b22"/>
    <rect x="250" y="352" width="55.0" height="18" rx="3" fill="#58a6ff"/>
    <text x="312.99" y="366" font-size="13" font-weight="700" fill="#e6edf3">11,7 %</text><text x="236" y="395" text-anchor="end" font-size="13" fill="#9ba5b0">Emploi informel</text>
    <rect x="250" y="382" width="470" height="18" rx="3" fill="#161b22"/>
    <rect x="250" y="382" width="37.1" height="18" rx="3" fill="#58a6ff"/>
    <text x="295.13" y="396" font-size="13" font-weight="700" fill="#e6edf3">7,9 %</text><text x="236" y="425" text-anchor="end" font-size="13" fill="#9ba5b0">Sans revenu</text>
    <rect x="250" y="412" width="470" height="18" rx="3" fill="#161b22"/>
    <rect x="250" y="412" width="9.9" height="18" rx="3" fill="#58a6ff"/>
    <text x="267.87" y="426" font-size="13" font-weight="700" fill="#e6edf3">2,1 %</text>
</svg>